<svg enable-background="new 0 0 64 64" height="512" viewBox="0 0 64 64" width="512" xmlns="http://www.w3.org/2000/svg"><g id="Layer_23"><g><path d="m2 59h8c.265 0 .52-.105.707-.293l2.885-2.885 5.771-2.885 6.912-1.975c.163-.047.312-.135.432-.255l33.293-33.293c.635-.634.744-1.59.345-2.345l.948-.948c1.085-1.085 1.707-2.587 1.707-4.121s-.622-3.036-1.707-4.121l-3.172-3.172c-1.1-1.101-2.564-1.707-4.121-1.707s-3.021.606-4.121 1.707l-.948.948c-.755-.398-1.711-.289-2.345.345l-33.293 33.293c-.12.12-.208.269-.254.433l-1.974 6.909-2.887 5.774-6.885 6.885c-.286.286-.372.716-.217 1.09s.52.616.924.616zm39.53-34h-5.116l2.293-2.293c.713-.713 1.873-.713 2.586 0 .622.622.701 1.584.237 2.293zm-7.116 2h5.172l-13.586 13.586-2.586-2.586zm8.293-.293c1.493-1.492 1.493-3.922 0-5.414-1.492-1.492-3.922-1.492-5.414 0l-15.293 15.293-2.586-2.586 23.586-23.586 10.586 10.586-23.586 23.586-2.586-2.586zm-14.121 19.293-2.586 2.586-10.586-10.586 2.586-2.586zm28.121-41.879 3.172 3.172c.712.713 1.121 1.699 1.121 2.707s-.409 1.994-1.121 2.707l-.879.879-8.586-8.586.879-.879c1.446-1.445 3.968-1.445 5.414 0zm-8.707 1.293 10.586 10.586-3.586 3.586-10.586-10.586zm-33.506 34.495 9.597 9.597-4.8 1.372-6.168-6.168zm-2.22 6.779 5.038 5.038-4.115 2.057-2.98-2.98zm-3.274 5.726 2.586 2.586-2 2h-5.172z"/><path d="m1 61h62v2h-62z"/></g></g></svg>